# xmcd
#
# Track frame offsets:
#	150
#	14577
#	25152
#	44758
#	58330
#	69923
#	80204
#	93974
#	107306
#	118266
#	130508
#	144621
#	155067
#	166930
#	185758
#	195665
#	205761
#	217214
#
# Disc length: 3125 seconds
#
# Revision: 4
# Processed by: cddbd v1.5.2PL0 Copyright (c) Steve Scherf et al.
# Submitted via: EasyCDDAExtractor 10.0.2.1
#
DISCID=0e0c3312
DTITLE=Various Artist - COMPLETE COUNTRY  [DISC 4]
DYEAR=2006
DGENRE=Country
TTITLE0=Bobby Gentry - My Elusive Dreams
TTITLE1=Jimmie Rogers - Kisses Sweeter Than Wine
TTITLE2=Kenny Rogers - Coward of the County
TTITLE3=John Stewart - July, You're a Woman
TTITLE4=George Jones - She Thinks I Still Care
TTITLE5=Tennessee Ernie Ford - King of the Road
TTITLE6=Crystal Gayle - River Road
TTITLE7=Glen Campbell - Gentle on My Mind
TTITLE8=Sonny James - I'll Never Find Another You
TTITLE9=Roy Clark - Tips of My Fingers
TTITLE10=Band - Georgia on My Mind
TTITLE11=Jody Miller - Queen of the House
TTITLE12=Bobby Goldsboro - Watchin' Scotty Grow
TTITLE13=Juice Newton - Angel of the Morning
TTITLE14=Slim Whitman - Rose Marie
TTITLE15=Willie Nelson - Touch Me
TTITLE16=Jean Shepard - A Dear John Letter
TTITLE17=Kenny Rogers and Sheena Easton - We've Got Tonight
EXTD=
EXTT0=
EXTT1=
EXTT2=
EXTT3=
EXTT4=
EXTT5=
EXTT6=
EXTT7=
EXTT8=
EXTT9=
EXTT10=
EXTT11=
EXTT12=
EXTT13=
EXTT14=
EXTT15=
EXTT16=
EXTT17=
PLAYORDER=
